<?xml version="1.0" encoding="UTF-8"?>
<svg width="900px" height="799px" viewBox="0 0 900 799" version="1.1" xmlns="http://www.w3.org/2000/svg" xmlns:xlink="http://www.w3.org/1999/xlink">
    <!-- Generator: Sketch 46.2 (44496) - http://www.bohemiancoding.com/sketch -->
    <title>Artboard 6</title>
    <desc>Created with Sketch.</desc>
    <defs></defs>
    <g id="Page-1" stroke="none" stroke-width="1" fill="none" fill-rule="evenodd">
        <g id="Artboard-6">
            <g id="Group-21">
                <polygon id="Polygon-4" fill="#E0483D" transform="translate(450.000000, 399.392097) scale(1, -1) translate(-450.000000, -399.392097) " points="450 -9.09494702e-13 900 474.386494 689.027758 798.784195 206.100131 798.784195 5.68434189e-14 474.386494"></polygon>
                <polygon id="Triangle" fill="#E9615B" transform="translate(224.316109, 553.951368) scale(1, -1) translate(-224.316109, -553.951368) " points="448.632219 311.854103 281.845185 796.048632 0 783.617535"></polygon>
                <polygon id="Triangle" fill="#CF3334" transform="translate(674.316109, 552.583587) scale(-1, -1) translate(-674.316109, -552.583587) " points="900 306.382979 728.396296 798.784195 448.632219 780.546711"></polygon>
                <polygon id="Triangle" fill="#E9615B" transform="translate(451.367781, 155.927052) scale(-1, -1) translate(-451.367781, -155.927052) " points="620.972644 0 454.581703 311.854103 281.762918 4.8279637"></polygon>
                <path d="M205.167173,322.796353 L-5.68434189e-14,9.09494702e-13 L205.167173,322.796353 Z" id="Triangle" fill="#F75167" transform="translate(102.583587, 161.398176) scale(1, -1) translate(-102.583587, -161.398176) "></path>
                <polygon id="Triangle" fill="#DD4339" transform="translate(760.486322, 162.765957) scale(-1, -1) translate(-760.486322, -162.765957) " points="900 18.0362412 832.912809 325.531915 620.972644 0"></polygon>
                <polygon id="Triangle" fill="#D84639" transform="translate(140.881459, 161.398176) scale(1, -1) translate(-140.881459, -161.398176) " points="281.762918 11.5118907 205.631618 322.796353 0 -5.68434189e-14"></polygon>
                <polygon id="Triangle" fill="#DC4339" transform="translate(451.367781, 551.215805) scale(-1, -1) translate(-451.367781, -551.215805) " points="453.360186 306.382979 620.972644 791.288034 281.762918 796.048632"></polygon>
            </g>
        </g>
    </g>
</svg>